<?xml version="1.0"?>
<svg version="1.1" xmlns="http://www.w3.org/2000/svg" width="200" height="90" style="border: dashed 2px #aaa"><path fill="#18669e" d="M21.75390625,51.20703125l1.39453125,0q1.955078125,0,2.92578125-0.7724609375t0.970703125-2.2490234375q0-1.490234375-0.8134765625-2.201171875t-2.5498046875-0.7109375l-1.927734375,0l0,5.93359375z M31.32421875,48.03515625q0,3.2265625-2.0166015625,4.935546875t-5.7353515625,1.708984375l-1.818359375,0l0,7.109375l-4.23828125,0l0-19.98828125l6.384765625,0q3.63671875,0,5.5302734375,1.5654296875t1.8935546875,4.6689453125z M45.22537109375,46.216796875q0.84765625,0,1.408203125,0.123046875l-0.314453125,3.91015625q-0.505859375-0.13671875-1.23046875-0.13671875q-1.99609375,0-3.1103515625,1.025390625t-1.1142578125,2.87109375l0,7.779296875l-4.169921875,0l0-15.28515625l3.158203125,0l0.615234375,2.5703125l0.205078125,0q0.7109375-1.28515625,1.9208984375-2.0712890625t2.6318359375-0.7861328125z M54.6558203125,54.119140625q0,2.26953125,0.7451171875,3.431640625t2.4267578125,1.162109375q1.66796875,0,2.3994140625-1.1552734375t0.7314453125-3.4384765625q0-2.26953125-0.73828125-3.404296875t-2.419921875-1.134765625q-1.66796875,0-2.40625,1.1279296875t-0.73828125,3.4111328125z M65.2241796875,54.119140625q0,3.732421875-1.96875,5.837890625t-5.482421875,2.10546875q-2.201171875,0-3.8828125-0.9638671875t-2.583984375-2.7685546875t-0.90234375-4.2109375q0-3.74609375,1.955078125-5.82421875t5.49609375-2.078125q2.201171875,0,3.8828125,0.95703125t2.583984375,2.748046875t0.90234375,4.197265625z M69.36361328125,68.515625q-1.599609375,0-2.748046875-0.341796875l0-3.28125q0.95703125,0.259765625,1.955078125,0.259765625q1.052734375,0,1.5380859375-0.587890625t0.4853515625-1.736328125l0-16.32421875l4.169921875,0l0,16.939453125q0,2.43359375-1.408203125,3.7529296875t-3.9921875,1.3193359375z M70.41634765625,42.552734375q0-2.037109375,2.26953125-2.037109375t2.26953125,2.037109375q0,0.970703125-0.5673828125,1.5107421875t-1.7021484375,0.5400390625q-2.26953125,0-2.26953125-2.05078125z M87.393671875,49.18359375q-1.326171875,0-2.078125,0.8408203125t-0.861328125,2.3857421875l5.8515625,0q-0.02734375-1.544921875-0.806640625-2.3857421875t-2.10546875-0.8408203125z M87.9815625,62.0625q-3.69140625,0-5.76953125-2.037109375t-2.078125-5.76953125q0-3.841796875,1.9208984375-5.9404296875t5.3115234375-2.0986328125q3.240234375,0,5.044921875,1.845703125t1.8046875,5.099609375l0,2.0234375l-9.857421875,0q0.068359375,1.77734375,1.052734375,2.775390625t2.76171875,0.998046875q1.380859375,0,2.611328125-0.287109375t2.5703125-0.916015625l0,3.2265625q-1.09375,0.546875-2.337890625,0.8134765625t-3.03515625,0.2666015625z M116.01943359375,61.7890625l-4.83984375,0l-4.6484375-7.560546875l-4.6484375,7.560546875l-4.5390625,0l6.630859375-10.30859375l-6.20703125-9.6796875l4.67578125,0l4.306640625,7.19140625l4.224609375-7.19140625l4.56640625,0l-6.275390625,9.912109375z"/><path fill="#466880" d=""/></svg>
