<svg xmlns="http://www.w3.org/2000/svg" xmlns:xlink="http://www.w3.org/1999/xlink" version="1.1" width="1000" height="1000" viewBox="0 0 1000 1000" xml:space="preserve">
<desc>Created with Fabric.js 3.5.0</desc>
<defs>
</defs>
<rect x="0" y="0" width="100%" height="100%" fill="#ffffff"/>
<g transform="matrix(1.5625 0 0 1.5625 324.3607 374.0514)" id="15808">
<g style="" vector-effect="non-scaling-stroke">
		<g transform="matrix(1.3333 0 0 1.3333 55.3953 -4.0318)" clip-path="url(#CLIPPATH_2)">
<clipPath id="CLIPPATH_2">
	<path transform="matrix(1 0 0 1 0 0) translate(-175.4219, -92.9766)" id="8.0348e+76" d="M 158.171875 75.726562 L 192.671875 75.726562 L 192.671875 110.226562 L 158.171875 110.226562 Z M 158.171875 75.726562" stroke-linecap="round"/>
</clipPath>
<path style="stroke: none; stroke-width: 1; stroke-dasharray: none; stroke-linecap: butt; stroke-dashoffset: 0; stroke-linejoin: miter; stroke-miterlimit: 4; is-custom-font: none; font-file-url: none; fill: rgb(250,159,0); fill-rule: nonzero; opacity: 1;" transform=" translate(-175.4219, -92.9766)" d="M 192.152344 87.800781 C 192.464844 87.800781 192.671875 87.59375 192.671875 87.28125 L 192.671875 85.503906 C 192.671875 83.464844 191 81.84375 189.015625 81.84375 L 188.804688 81.84375 C 189.746094 81.269531 190.425781 80.222656 190.425781 79.019531 C 190.425781 77.191406 188.960938 75.726562 187.132812 75.726562 C 185.304688 75.726562 183.839844 77.191406 183.839844 79.019531 C 183.839844 80.222656 184.46875 81.269531 185.460938 81.84375 L 185.148438 81.84375 C 183.109375 81.84375 181.488281 83.515625 181.488281 85.503906 L 181.488281 87.070312 L 178.457031 90.207031 C 176.730469 88.847656 174.324219 88.847656 172.601562 90.207031 L 169.570312 87.070312 L 169.570312 85.503906 C 169.570312 83.464844 167.898438 81.84375 165.910156 81.84375 L 165.699219 81.84375 C 166.640625 81.269531 167.320312 80.222656 167.320312 79.019531 C 167.320312 77.191406 165.859375 75.726562 164.027344 75.726562 C 162.042969 75.726562 160.578125 77.191406 160.578125 79.019531 C 160.578125 80.222656 161.207031 81.269531 162.199219 81.84375 L 161.832031 81.84375 C 159.792969 81.84375 158.171875 83.515625 158.171875 85.503906 L 158.171875 87.28125 C 158.171875 87.59375 158.382812 87.800781 158.695312 87.800781 L 168.734375 87.800781 L 171.765625 90.9375 C 170.40625 92.558594 170.300781 94.910156 171.449219 96.6875 L 167.007812 100.453125 C 166.589844 99.09375 165.335938 98.152344 163.871094 98.152344 C 162.042969 98.152344 160.578125 99.617188 160.578125 101.445312 C 160.578125 102.648438 161.207031 103.691406 162.199219 104.269531 L 161.832031 104.269531 C 159.792969 104.269531 158.171875 105.941406 158.171875 107.925781 L 158.171875 109.703125 C 158.171875 110.019531 158.382812 110.226562 158.695312 110.226562 L 168.941406 110.226562 C 169.253906 110.226562 169.464844 110.019531 169.464844 109.703125 L 169.464844 107.925781 C 169.464844 105.886719 167.792969 104.269531 165.804688 104.269531 L 165.597656 104.269531 C 166.484375 103.746094 167.113281 102.804688 167.164062 101.707031 L 172.128906 97.523438 C 174.011719 99.300781 176.886719 99.300781 178.71875 97.523438 L 183.734375 101.757812 C 183.839844 102.855469 184.414062 103.796875 185.304688 104.320312 L 184.988281 104.320312 C 182.949219 104.320312 181.332031 105.992188 181.332031 107.980469 L 181.332031 109.703125 C 181.332031 110.019531 181.539062 110.226562 181.851562 110.226562 L 192.152344 110.226562 C 192.464844 110.226562 192.671875 110.019531 192.671875 109.703125 L 192.671875 107.925781 C 192.671875 105.886719 191 104.269531 189.015625 104.269531 L 188.804688 104.269531 C 189.746094 103.691406 190.425781 102.648438 190.425781 101.445312 C 190.425781 99.617188 188.960938 98.152344 187.132812 98.152344 C 185.667969 98.152344 184.414062 99.144531 183.996094 100.453125 L 179.5 96.6875 C 180.652344 94.910156 180.546875 92.609375 179.1875 90.992188 L 182.21875 87.855469 L 192.152344 87.855469 Z M 187.082031 76.773438 C 188.335938 76.773438 189.328125 77.765625 189.328125 79.019531 C 189.328125 80.273438 188.335938 81.269531 187.082031 81.269531 C 185.824219 81.269531 184.832031 80.273438 184.832031 79.019531 C 184.78125 77.765625 185.824219 76.773438 187.082031 76.773438 Z M 163.871094 76.773438 C 165.125 76.773438 166.121094 77.765625 166.121094 79.019531 C 166.121094 80.273438 165.125 81.269531 163.871094 81.269531 C 162.617188 81.269531 161.625 80.273438 161.625 79.019531 C 161.625 77.765625 162.617188 76.773438 163.871094 76.773438 Z M 168.417969 107.925781 L 168.417969 109.179688 L 159.21875 109.179688 L 159.21875 107.925781 C 159.21875 106.464844 160.421875 105.3125 161.832031 105.3125 L 165.804688 105.3125 C 167.269531 105.3125 168.417969 106.515625 168.417969 107.925781 Z M 191.628906 107.925781 L 191.628906 109.179688 L 182.429688 109.179688 L 182.429688 107.925781 C 182.429688 106.464844 183.628906 105.3125 185.042969 105.3125 L 189.015625 105.3125 C 190.425781 105.3125 191.628906 106.515625 191.628906 107.925781 Z M 182.429688 85.554688 C 182.429688 84.089844 183.628906 82.941406 185.042969 82.941406 L 189.015625 82.941406 C 190.476562 82.941406 191.628906 84.144531 191.628906 85.554688 L 191.628906 86.808594 L 182.429688 86.808594 Z M 159.21875 85.554688 C 159.21875 84.089844 160.421875 82.941406 161.832031 82.941406 L 165.804688 82.941406 C 167.269531 82.941406 168.417969 84.144531 168.417969 85.554688 L 168.417969 86.808594 L 159.21875 86.808594 Z M 163.871094 103.691406 C 162.617188 103.691406 161.625 102.699219 161.625 101.445312 C 161.625 100.191406 162.617188 99.199219 163.871094 99.199219 C 165.125 99.199219 166.121094 100.191406 166.121094 101.445312 C 166.121094 102.699219 165.125 103.691406 163.871094 103.691406 Z M 187.082031 99.199219 C 188.335938 99.199219 189.328125 100.191406 189.328125 101.445312 C 189.328125 102.699219 188.335938 103.691406 187.082031 103.691406 C 185.824219 103.691406 184.832031 102.699219 184.832031 101.445312 C 184.78125 100.191406 185.824219 99.199219 187.082031 99.199219 Z M 175.421875 97.785156 C 174.273438 97.785156 173.28125 97.261719 172.546875 96.425781 C 172.027344 95.746094 171.660156 94.910156 171.660156 94.023438 C 171.660156 91.929688 173.332031 90.257812 175.371094 90.257812 C 177.410156 90.257812 179.082031 91.929688 179.082031 94.023438 C 179.136719 96.113281 177.460938 97.785156 175.421875 97.785156 Z M 175.421875 97.785156" stroke-linecap="round"/>
</g>
		<g transform="matrix(1.3333 0 0 1.3333 -62.5029 3.0898)">
<path style="stroke: none; stroke-width: 1; stroke-dasharray: none; stroke-linecap: butt; stroke-dashoffset: 0; stroke-linejoin: miter; stroke-miterlimit: 4; is-custom-font: none; font-file-url: none; fill: rgb(60,86,186); fill-rule: nonzero; opacity: 1;" transform=" translate(-11.2422, 11.4219)" d="M 11.796875 -22.84375 C 13.429688 -22.84375 14.828125 -22.539062 15.984375 -21.9375 C 17.148438 -21.34375 18.03125 -20.503906 18.625 -19.421875 C 19.21875 -18.347656 19.515625 -17.097656 19.515625 -15.671875 C 19.515625 -14.242188 19.21875 -12.992188 18.625 -11.921875 C 18.03125 -10.847656 17.148438 -10.007812 15.984375 -9.40625 C 14.828125 -8.8125 13.429688 -8.515625 11.796875 -8.515625 L 7.484375 -8.515625 L 7.484375 0 L 2.96875 0 L 2.96875 -22.84375 Z M 11.203125 -12.09375 C 13.710938 -12.09375 14.96875 -13.285156 14.96875 -15.671875 C 14.96875 -18.066406 13.710938 -19.265625 11.203125 -19.265625 L 7.484375 -19.265625 L 7.484375 -12.09375 Z M 11.203125 -12.09375" stroke-linecap="round"/>
</g>
		<g transform="matrix(1.3333 0 0 1.3333 -39.1033 6.7253)">
<path style="stroke: none; stroke-width: 1; stroke-dasharray: none; stroke-linecap: butt; stroke-dashoffset: 0; stroke-linejoin: miter; stroke-miterlimit: 4; is-custom-font: none; font-file-url: none; fill: rgb(60,86,186); fill-rule: nonzero; opacity: 1;" transform=" translate(-7.9219, 8.6953)" d="M 2.484375 0 L 2.484375 -17.234375 L 6.6875 -17.234375 L 6.6875 -14.671875 L 7.015625 -14.609375 C 7.429688 -15.566406 7.976562 -16.269531 8.65625 -16.71875 C 9.332031 -17.164062 10.15625 -17.390625 11.125 -17.390625 C 12.101562 -17.390625 12.847656 -17.222656 13.359375 -16.890625 L 12.625 -13.15625 L 12.296875 -13.09375 C 12.015625 -13.207031 11.742188 -13.289062 11.484375 -13.34375 C 11.222656 -13.394531 10.90625 -13.421875 10.53125 -13.421875 C 9.320312 -13.421875 8.398438 -12.992188 7.765625 -12.140625 C 7.128906 -11.296875 6.8125 -9.9375 6.8125 -8.0625 L 6.8125 0 Z M 2.484375 0" stroke-linecap="round"/>
</g>
		<g transform="matrix(1.3333 0 0 1.3333 -18.2849 6.8295)">
<path style="stroke: none; stroke-width: 1; stroke-dasharray: none; stroke-linecap: butt; stroke-dashoffset: 0; stroke-linejoin: miter; stroke-miterlimit: 4; is-custom-font: none; font-file-url: none; fill: rgb(60,86,186); fill-rule: nonzero; opacity: 1;" transform=" translate(-10.0234, 8.6172)" d="M 10.015625 0.328125 C 8.328125 0.328125 6.84375 -0.015625 5.5625 -0.703125 C 4.289062 -1.398438 3.300781 -2.414062 2.59375 -3.75 C 1.894531 -5.09375 1.546875 -6.710938 1.546875 -8.609375 C 1.546875 -10.503906 1.894531 -12.125 2.59375 -13.46875 C 3.300781 -14.8125 4.289062 -15.828125 5.5625 -16.515625 C 6.84375 -17.210938 8.328125 -17.5625 10.015625 -17.5625 C 11.703125 -17.5625 13.179688 -17.210938 14.453125 -16.515625 C 15.734375 -15.828125 16.726562 -14.8125 17.4375 -13.46875 C 18.144531 -12.125 18.5 -10.503906 18.5 -8.609375 C 18.5 -6.710938 18.144531 -5.09375 17.4375 -3.75 C 16.726562 -2.414062 15.734375 -1.398438 14.453125 -0.703125 C 13.179688 -0.015625 11.703125 0.328125 10.015625 0.328125 Z M 10.015625 -3.34375 C 12.691406 -3.34375 14.03125 -5.097656 14.03125 -8.609375 C 14.03125 -10.429688 13.6875 -11.765625 13 -12.609375 C 12.3125 -13.460938 11.316406 -13.890625 10.015625 -13.890625 C 7.335938 -13.890625 6 -12.128906 6 -8.609375 C 6 -5.097656 7.335938 -3.34375 10.015625 -3.34375 Z M 10.015625 -3.34375" stroke-linecap="round"/>
</g>
		<g transform="matrix(1.3333 0 0 1.3333 -1.2184 6.9438)">
<path style="stroke: none; stroke-width: 1; stroke-dasharray: none; stroke-linecap: butt; stroke-dashoffset: 0; stroke-linejoin: miter; stroke-miterlimit: 4; is-custom-font: none; font-file-url: none; fill: rgb(60,86,186); fill-rule: nonzero; opacity: 1;" transform=" translate(-2.7969, 8.5313)" d="M 4.640625 -19.296875 C 3.859375 -19.296875 3.222656 -19.53125 2.734375 -20 C 2.242188 -20.476562 2 -21.09375 2 -21.84375 C 2 -22.582031 2.242188 -23.1875 2.734375 -23.65625 C 3.222656 -24.132812 3.859375 -24.375 4.640625 -24.375 C 5.160156 -24.375 5.625 -24.265625 6.03125 -24.046875 C 6.4375 -23.828125 6.75 -23.523438 6.96875 -23.140625 C 7.195312 -22.765625 7.3125 -22.332031 7.3125 -21.84375 C 7.3125 -21.351562 7.195312 -20.914062 6.96875 -20.53125 C 6.75 -20.144531 6.4375 -19.84375 6.03125 -19.625 C 5.625 -19.40625 5.160156 -19.296875 4.640625 -19.296875 Z M 1.34375 7.3125 C 0.0703125 7.3125 -0.945312 7.144531 -1.71875 6.8125 L -1.1875 3.40625 L -0.890625 3.3125 C -0.472656 3.507812 0.015625 3.609375 0.578125 3.609375 C 1.847656 3.609375 2.484375 2.859375 2.484375 1.359375 L 2.484375 -17.234375 L 6.8125 -17.234375 L 6.8125 1.234375 C 6.8125 3.242188 6.347656 4.757812 5.421875 5.78125 C 4.492188 6.800781 3.132812 7.3125 1.34375 7.3125 Z M 1.34375 7.3125" stroke-linecap="round"/>
</g>
		<g transform="matrix(1.3333 0 0 1.3333 20.091 6.8295)">
<path style="stroke: none; stroke-width: 1; stroke-dasharray: none; stroke-linecap: butt; stroke-dashoffset: 0; stroke-linejoin: miter; stroke-miterlimit: 4; is-custom-font: none; font-file-url: none; fill: rgb(60,86,186); fill-rule: nonzero; opacity: 1;" transform=" translate(-9.5, 8.6172)" d="M 17.03125 -7.640625 L 5.953125 -7.640625 C 6.078125 -6.140625 6.503906 -5.046875 7.234375 -4.359375 C 7.960938 -3.679688 8.957031 -3.34375 10.21875 -3.34375 C 11.207031 -3.34375 12.007812 -3.523438 12.625 -3.890625 C 13.238281 -4.265625 13.734375 -4.828125 14.109375 -5.578125 L 14.4375 -5.578125 L 17.3125 -3.734375 C 16.75 -2.523438 15.898438 -1.546875 14.765625 -0.796875 C 13.628906 -0.046875 12.113281 0.328125 10.21875 0.328125 C 8.4375 0.328125 6.894531 -0.0078125 5.59375 -0.6875 C 4.300781 -1.363281 3.300781 -2.367188 2.59375 -3.703125 C 1.894531 -5.046875 1.546875 -6.679688 1.546875 -8.609375 C 1.546875 -10.566406 1.914062 -12.21875 2.65625 -13.5625 C 3.394531 -14.90625 4.394531 -15.90625 5.65625 -16.5625 C 6.914062 -17.226562 8.332031 -17.5625 9.90625 -17.5625 C 12.34375 -17.5625 14.207031 -16.914062 15.5 -15.625 C 16.800781 -14.332031 17.453125 -12.4375 17.453125 -9.9375 C 17.453125 -9.03125 17.421875 -8.328125 17.359375 -7.828125 Z M 13.3125 -10.4375 C 13.269531 -11.75 12.960938 -12.703125 12.390625 -13.296875 C 11.828125 -13.898438 11 -14.203125 9.90625 -14.203125 C 7.71875 -14.203125 6.429688 -12.945312 6.046875 -10.4375 Z M 13.3125 -10.4375" stroke-linecap="round"/>
</g>
</g>
</g>
</svg>